<?xml version="1.0" standalone="no"?>
<!DOCTYPE svg PUBLIC "-//W3C//DTD SVG 20010904//EN"
 "http://www.w3.org/TR/2001/REC-SVG-20010904/DTD/svg10.dtd">
<svg version="1.0" xmlns="http://www.w3.org/2000/svg"
 width="233.000000pt" height="233.000000pt" viewBox="0 0 233.000000 233.000000"
 preserveAspectRatio="xMidYMid meet">
<metadata>
Created by potrace 1.15, written by Peter Selinger 2001-2017
</metadata>
<g transform="translate(0.000000,233.000000) scale(0.100000,-0.100000)"
fill="#000000" stroke="none">
<path d="M1575 2271 c-44 -15 -99 -35 -123 -44 -23 -9 -46 -17 -50 -18 -4 -2
-18 -28 -32 -59 -14 -32 -30 -64 -35 -71 -20 -28 -46 -79 -40 -79 4 0 -13 -36
-36 -80 l-43 -80 -317 0 c-279 0 -318 -2 -330 -16 -9 -11 -14 -53 -14 -138 -2
-133 8 -166 49 -166 24 0 25 -6 52 -295 5 -57 10 -107 19 -185 3 -30 8 -77 10
-105 3 -27 7 -70 10 -95 3 -25 7 -70 10 -100 3 -30 7 -77 10 -105 3 -27 7 -70
10 -95 26 -272 49 -450 61 -475 l14 -30 313 1 c171 1 324 2 339 3 33 1 48 26
54 89 4 54 42 425 50 492 9 84 13 115 33 320 12 113 23 225 26 250 3 25 8 65
10 90 3 25 7 59 9 75 2 17 7 60 11 98 7 64 8 67 34 67 15 0 32 5 39 12 15 15
17 261 2 289 -10 18 -23 19 -185 19 -96 0 -175 3 -175 6 0 4 14 29 30 56 17
26 30 53 30 59 0 6 16 42 36 79 37 71 64 91 145 105 51 9 109 43 109 65 0 10
-4 21 -9 25 -5 3 -12 19 -16 35 -4 17 -12 30 -18 29 -7 0 -48 -13 -92 -28z
m55 -594 l0 -63 -489 0 -489 0 1 63 0 63 489 0 488 0 0 -63z m-84 -179 c-3
-13 -6 -43 -6 -68 0 -25 -4 -51 -8 -57 -10 -15 -763 -186 -773 -175 -3 4 -11
66 -18 137 -7 72 -14 142 -17 158 l-6 27 417 0 417 0 -6 -22z m-30 -305 c-4
-38 -7 -80 -6 -94 0 -14 -6 -32 -12 -41 -9 -10 -128 -41 -357 -92 -190 -42
-346 -74 -348 -72 -6 5 -26 196 -22 200 5 3 719 163 738 165 11 1 12 -12 7
-66z m-30 -275 c-2 -18 -7 -65 -11 -104 l-7 -71 -320 -72 c-176 -39 -322 -70
-323 -69 -7 7 -24 182 -19 187 3 3 157 40 342 83 185 42 338 77 339 77 1 1 1
-14 -1 -31z m-30 -323 c-3 -25 -8 -65 -12 -89 -3 -25 -7 -69 -10 -98 -3 -29
-7 -64 -9 -78 -2 -14 -6 -59 -10 -100 -4 -41 -11 -79 -16 -85 -14 -14 -529
-14 -530 0 0 5 -2 28 -5 50 -2 22 -6 58 -8 80 -2 22 -7 78 -12 125 -5 47 -9
89 -9 94 0 8 563 142 608 145 16 1 17 -5 13 -44z"/>
</g>
</svg>
